<svg width="109" height="39" viewBox="0 0 109 39" fill="none" xmlns="http://www.w3.org/2000/svg">
<path d="M15.752 4.016V4.976C14.664 5.008 13.832 5.136 13.256 5.36C12.712 5.552 12.344 5.936 12.152 6.512C11.96 7.056 11.864 7.92 11.864 9.104V33.488C11.864 34.48 11.928 35.216 12.056 35.696C12.216 36.176 12.504 36.496 12.92 36.656C13.368 36.816 14.024 36.896 14.888 36.896H17.24C18.328 36.896 19.352 36.64 20.312 36.128C21.272 35.616 22.136 34.896 22.904 33.968C23.672 33.008 24.312 31.872 24.824 30.56C25.336 29.248 25.72 27.792 25.976 26.192H27.08C26.984 27.28 26.936 28.688 26.936 30.416C26.936 31.152 26.952 32.224 26.984 33.632C27.016 35.04 27.112 36.496 27.272 38C25.64 37.936 23.8 37.904 21.752 37.904C19.704 37.872 17.88 37.856 16.28 37.856C15.48 37.856 14.456 37.856 13.208 37.856C11.96 37.856 10.616 37.872 9.176 37.904C7.736 37.904 6.28 37.92 4.808 37.952C3.336 37.952 1.944 37.968 0.632 38V37.04C1.656 36.976 2.424 36.848 2.936 36.656C3.448 36.464 3.784 36.08 3.944 35.504C4.136 34.928 4.232 34.064 4.232 32.912V9.104C4.232 7.92 4.136 7.056 3.944 6.512C3.784 5.936 3.432 5.552 2.888 5.36C2.376 5.136 1.624 5.008 0.632 4.976V4.016C1.432 4.048 2.504 4.08 3.848 4.112C5.224 4.144 6.68 4.16 8.216 4.16C9.624 4.16 11 4.144 12.344 4.112C13.72 4.08 14.856 4.048 15.752 4.016ZM41.8798 12.512C44.2158 12.512 46.2638 12.944 48.0238 13.808C49.7838 14.672 51.1598 16.064 52.1518 17.984C53.1438 19.904 53.6398 22.448 53.6398 25.616C53.6398 28.784 53.1438 31.328 52.1518 33.248C51.1598 35.136 49.7838 36.512 48.0238 37.376C46.2638 38.24 44.2158 38.672 41.8798 38.672C39.6078 38.672 37.5758 38.24 35.7838 37.376C34.0238 36.512 32.6318 35.136 31.6078 33.248C30.6158 31.328 30.1198 28.784 30.1198 25.616C30.1198 22.448 30.6158 19.904 31.6078 17.984C32.6318 16.064 34.0238 14.672 35.7838 13.808C37.5758 12.944 39.6078 12.512 41.8798 12.512ZM41.8798 13.472C40.5998 13.472 39.5278 14.432 38.6638 16.352C37.7998 18.24 37.3678 21.328 37.3678 25.616C37.3678 29.904 37.7998 32.992 38.6638 34.88C39.5278 36.768 40.5998 37.712 41.8798 37.712C43.1918 37.712 44.2638 36.768 45.0958 34.88C45.9598 32.992 46.3918 29.904 46.3918 25.616C46.3918 21.328 45.9598 18.24 45.0958 16.352C44.2638 14.432 43.1918 13.472 41.8798 13.472ZM73.1004 12.512C75.5964 12.512 77.6604 13.536 79.2924 15.584C80.9564 17.6 81.7884 20.72 81.7884 24.944C81.7884 28.272 81.2764 30.944 80.2524 32.96C79.2604 34.976 77.9324 36.432 76.2684 37.328C74.6044 38.224 72.7804 38.672 70.7964 38.672C69.4844 38.672 68.2684 38.448 67.1484 38C66.0284 37.552 65.0684 36.816 64.2684 35.792L64.9404 35.552C65.5164 36.256 66.1884 36.784 66.9564 37.136C67.7564 37.488 68.5404 37.664 69.3084 37.664C71.0684 37.664 72.3804 36.672 73.2444 34.688C74.1084 32.704 74.5404 29.68 74.5404 25.616C74.5404 22.864 74.3644 20.688 74.0124 19.088C73.6924 17.456 73.2124 16.304 72.5724 15.632C71.9324 14.928 71.1644 14.576 70.2684 14.576C69.1484 14.576 68.1244 15.04 67.1964 15.968C66.2684 16.864 65.7404 18.128 65.6124 19.76L65.3724 18.08C65.9484 16.256 66.9244 14.88 68.3004 13.952C69.6764 12.992 71.2764 12.512 73.1004 12.512ZM65.7564 0.463997V37.04C64.9564 36.912 64.1404 36.912 63.3084 37.04C62.4764 37.168 61.7084 37.392 61.0044 37.712C60.3004 38 59.7084 38.352 59.2284 38.768L58.5084 38.336C58.6364 37.888 58.7164 37.44 58.7484 36.992C58.8124 36.544 58.8444 36.096 58.8444 35.648V6.224C58.8444 4.784 58.6204 3.728 58.1724 3.056C57.7564 2.352 56.9564 2 55.7724 2V0.991999C56.7964 1.088 57.7884 1.136 58.7484 1.136C60.0604 1.136 61.3084 1.088 62.4924 0.991999C63.6764 0.863998 64.7644 0.687998 65.7564 0.463997ZM97.1454 12.512C99.4814 12.512 101.529 12.944 103.289 13.808C105.049 14.672 106.425 16.064 107.417 17.984C108.409 19.904 108.905 22.448 108.905 25.616C108.905 28.784 108.409 31.328 107.417 33.248C106.425 35.136 105.049 36.512 103.289 37.376C101.529 38.24 99.4814 38.672 97.1454 38.672C94.8734 38.672 92.8414 38.24 91.0494 37.376C89.2894 36.512 87.8974 35.136 86.8734 33.248C85.8814 31.328 85.3854 28.784 85.3854 25.616C85.3854 22.448 85.8814 19.904 86.8734 17.984C87.8974 16.064 89.2894 14.672 91.0494 13.808C92.8414 12.944 94.8734 12.512 97.1454 12.512ZM97.1454 13.472C95.8654 13.472 94.7934 14.432 93.9294 16.352C93.0654 18.24 92.6334 21.328 92.6334 25.616C92.6334 29.904 93.0654 32.992 93.9294 34.88C94.7934 36.768 95.8654 37.712 97.1454 37.712C98.4574 37.712 99.5294 36.768 100.361 34.88C101.225 32.992 101.657 29.904 101.657 25.616C101.657 21.328 101.225 18.24 100.361 16.352C99.5294 14.432 98.4574 13.472 97.1454 13.472Z" fill="#141414"/>
</svg>
